<?xml version="1.0" encoding="UTF-8" standalone="no"?>
<!-- Created with Inkscape (http://www.inkscape.org/) -->

<svg
   xmlns:dc="http://purl.org/dc/elements/1.1/"
   xmlns:cc="http://creativecommons.org/ns#"
   xmlns:rdf="http://www.w3.org/1999/02/22-rdf-syntax-ns#"
   xmlns:svg="http://www.w3.org/2000/svg"
   xmlns="http://www.w3.org/2000/svg"
   xmlns:sodipodi="http://sodipodi.sourceforge.net/DTD/sodipodi-0.dtd"
   xmlns:inkscape="http://www.inkscape.org/namespaces/inkscape"
   width="210mm"
   height="297mm"
   viewBox="0 0 210 297"
   version="1.1"
   id="svg8"
   inkscape:version="0.92.5 (2060ec1f9f, 2020-04-08)"
   sodipodi:docname="Dessin-Projet.svg">
  <defs
     id="defs2" />
  <sodipodi:namedview
     id="base"
     pagecolor="#ffffff"
     bordercolor="#666666"
     borderopacity="1.0"
     inkscape:pageopacity="0.0"
     inkscape:pageshadow="2"
     inkscape:zoom="0.35"
     inkscape:cx="696.66811"
     inkscape:cy="1360"
     inkscape:document-units="mm"
     inkscape:current-layer="layer1"
     showgrid="false"
     inkscape:window-width="1920"
     inkscape:window-height="986"
     inkscape:window-x="2869"
     inkscape:window-y="-11"
     inkscape:window-maximized="1" />
  <metadata
     id="metadata5">
    <rdf:RDF>
      <cc:Work
         rdf:about="">
        <dc:format>image/svg+xml</dc:format>
        <dc:type
           rdf:resource="http://purl.org/dc/dcmitype/StillImage" />
        <dc:title />
      </cc:Work>
    </rdf:RDF>
  </metadata>
  <g
     inkscape:label="Calque 1"
     inkscape:groupmode="layer"
     id="layer1">
    <path
       sodipodi:type="spiral"
       style="fill:#00ff00;fill-rule:evenodd;stroke:#000000;stroke-width:0.26458332"
       id="path20"
       sodipodi:cx="-320.5238"
       sodipodi:cy="27.124998"
       sodipodi:expansion="1"
       sodipodi:revolution="3"
       sodipodi:radius="148.41522"
       sodipodi:argument="-18.132643"
       sodipodi:t0="0"
       d="m -320.5238,27.124998 c 5.60953,4.889389 -3.82326,9.973792 -8.12649,9.323414 -11.6615,-1.762483 -14.51722,-16.348677 -10.52034,-25.576386 7.14948,-16.5062063 28.4264,-19.8418869 43.02628,-11.71726973 21.42592,11.92320273 25.31072,40.66304073 12.9142,60.47618573 -16.52261,26.407806 -52.95544,30.840151 -77.92608,14.111126 -31.42301,-21.051771 -36.40077,-65.2742615 -15.30806,-95.375985 25.54611,-36.457221 77.60793,-41.979416 112.82589,-16.504982 41.50314,30.0207376 47.56937,89.950852 17.70191,130.275784 -34.48317,46.556735 -102.29995,53.166875 -147.72569,18.898835 -51.6156,-38.937521 -58.76966,-114.6533851 -20.09576,-165.175581 43.38626,-56.678269 127.00999,-64.376279 182.62548,-21.292694 61.74374,47.830948 69.98577,139.368981 22.48962,200.075385" />
    <path
       sodipodi:type="spiral"
       style="fill:#800080;fill-rule:evenodd;stroke:#000000;stroke-width:0.26458332"
       id="path22"
       sodipodi:cx="199.57143"
       sodipodi:cy="12.005952"
       sodipodi:expansion="1"
       sodipodi:revolution="3"
       sodipodi:radius="292.59653"
       sodipodi:argument="-17.970852"
       sodipodi:t0="0"
       d="m 199.57143,12.005952 c 9.36186,11.294866 -10.60645,18.192088 -18.77281,15.560026 -22.13036,-7.132725 -23.05458,-36.4203699 -12.34725,-53.105647 19.15291,-29.846045 61.61131,-29.579315 87.43849,-9.134459 37.90242,30.0036495 36.33409,87.157216 5.92167,121.771321 -40.53496,46.135157 -112.83087,43.189077 -156.10416,2.708891 -54.455005,-50.940182 -50.096345,-138.565843 0.5039,-190.436994 61.28367,-62.82291 164.33543,-57.03398 224.76983,3.716676 71.21985,71.592546 63.99068,190.12661 -6.92946,259.102664 -81.88011,79.63559 -215.93221,70.96011 -293.435506,-10.14224 -88.064174,-92.153648 -77.938432,-241.74792 13.355027,-327.76834 102.417469,-96.50191 267.571019,-84.92321 362.101179,16.56781 104.9464,112.67427 91.91282,293.39966 -19.7806,396.43402" />
    <path
       sodipodi:type="spiral"
       style="fill:#c73737;fill-rule:evenodd;stroke:#000000;stroke-width:0.26458332"
       id="path24"
       sodipodi:cx="-134.55952"
       sodipodi:cy="185.11905"
       sodipodi:expansion="1"
       sodipodi:revolution="3"
       sodipodi:radius="228.57906"
       sodipodi:argument="-18.11797"
       sodipodi:t0="0"
       d="m -134.55952,185.11905 c 8.528,7.65626 -6.11307,15.2729 -12.72521,14.1741 -17.91848,-2.97769 -21.98659,-25.50447 -15.623,-39.62451 11.38297,-25.25744 44.22409,-29.91346 66.523819,-17.0719 32.725749,18.84551 38.058752,63.19169 18.520795,93.42313 -26.041024,40.29375 -82.246524,46.29611 -120.322434,19.96969 -47.91465,-33.12911 -54.5809,-101.34275 -21.41859,-147.22174 40.164,-55.565603 120.462253,-62.893109 174.121047,-22.867487 C 17.75194,133.06914 25.73944,225.49659 -21.166707,286.92069 -75.32171,357.83724 -179.90665,366.48412 -249.08637,312.68597 -327.69275,251.55709 -336.99874,134.79554 -276.30055,57.867004 -208.20634,-28.435184 -79.254662,-38.400145 5.4177255,29.203924 99.420124,104.25726 110.04401,245.409 35.529702,337.8215" />
    <path
       sodipodi:type="spiral"
       style="fill:none;fill-rule:evenodd;stroke:#000000;stroke-width:0.26458332"
       id="path26"
       sodipodi:cx="-262.31549"
       sodipodi:cy="-272.23215"
       sodipodi:expansion="1"
       sodipodi:revolution="3"
       sodipodi:radius="234.42935"
       sodipodi:argument="-17.979691"
       sodipodi:t0="0"
       d="m -262.31549,-272.23215 c 7.58044,8.98284 -8.36876,14.65011 -14.93007,12.5992 -17.78073,-5.55782 -18.72859,-29.01572 -10.26833,-42.45933 15.13343,-24.04745 49.1518,-24.13442 69.9886,-7.93747 30.57884,23.76969 29.72706,69.57064 5.6066,97.51786 -32.14879,37.24926 -90.09112,35.4009 -125.04713,3.27574 -43.98857,-40.42624 -41.11705,-110.66034 -0.94487,-152.57639 48.6539,-50.76595 131.25709,-46.85777 180.10566,1.386 57.56634,56.85361 52.61393,151.871 -3.71687,207.63492 -65.03613,64.381644 -172.49637,58.380378 -235.16418,-6.04773 -71.20715,-73.20732 -64.15403,-193.12979 8.3786,-262.69345 81.37064,-78.03991 213.76907,-69.93291 290.222708,10.70946 84.878034,89.52832 75.715691,234.41277 -13.040328,317.751977" />
    <path
       sodipodi:type="spiral"
       style="fill:#00ffff;fill-rule:evenodd;stroke:#000000;stroke-width:0.26458332"
       id="path28"
       sodipodi:cx="6.0476193"
       sodipodi:cy="-300.95834"
       sodipodi:expansion="1"
       sodipodi:revolution="3"
       sodipodi:radius="293.97607"
       sodipodi:argument="-17.960327"
       sodipodi:t0="0"
       d="m 6.0476193,-300.95834 c 9.2860447,11.44648 -10.8482264,18.16469 -19.0248113,15.43401 -22.158038,-7.39996 -22.776878,-36.83384 -11.843222,-53.48364 19.5577447,-29.78257 62.211138,-29.06564 87.942466,-8.25242 37.761758,30.54423 35.581762,87.9475 4.661634,122.40129 -41.211667,45.92149 -113.813265,42.19721 -156.860122,1.07084 -54.170074,-51.75334 -48.864534,-139.74118 2.519955,-191.31895 62.233506,-62.46759 165.704189,-55.562 225.777781,6.11075 70.79464,72.6792 62.27839,191.6891 -9.70155,260.2366 -83.103685,79.140816 -217.688619,69.007426 -294.69543,-13.29233 -87.50003,-93.51422 -75.74528,-243.69841 16.88313,-329.15426 103.915078,-95.86856 269.71568,-82.48954 363.61309,20.47392 104.24393,114.30897 89.2386,295.73857 -24.06472,398.071919" />
    <path
       sodipodi:type="spiral"
       style="fill:#ff8080;fill-rule:evenodd;stroke:#000000;stroke-width:0.26458332"
       id="path30"
       sodipodi:cx="-374.19644"
       sodipodi:cy="-435.51785"
       sodipodi:expansion="1"
       sodipodi:revolution="3"
       sodipodi:radius="504.92923"
       sodipodi:argument="-17.882126"
       sodipodi:t0="0"
       d="m -374.19644,-435.51785 c 14.36494,20.84624 -21.01317,29.64845 -34.64783,23.87547 -36.9491,-15.64441 -34.05931,-66.12816 -13.10312,-93.17114 37.48569,-48.37353 110.42647,-41.42264 151.69444,-2.33076 60.56241,57.36891 49.12712,155.37013 -8.44159,210.21775 -76.73003,73.10326 -200.5487,56.98431 -268.74106,-19.21394 -85.81313,-95.88773 -64.922,-245.84065 29.9863,-327.26437 114.94667,-98.61504 291.19674,-72.90658 385.78768,40.75865 111.472146,133.95055 80.920639,336.59287 -51.53101,444.31099 -152.92068,124.364832 -382.01572,88.954367 -502.8343,-62.30337 -137.28174,-171.86865 -97.00183,-427.45732 73.07573,-561.3576 190.80132,-150.21588 472.9126,-105.05927 619.8809078,83.84808 C 170.09239,-488.42512 120.05387,-179.76993 -87.690729,-19.743872" />
    <path
       sodipodi:type="spiral"
       style="fill:#00ff00;fill-rule:evenodd;stroke:#000000;stroke-width:0.26458332"
       id="path32"
       sodipodi:cx="-436.94046"
       sodipodi:cy="-396.96426"
       sodipodi:expansion="1"
       sodipodi:revolution="3"
       sodipodi:radius="179.4794"
       sodipodi:argument="-18.192575"
       sodipodi:t0="0"
       d="m -436.94046,-396.96426 c 7.12562,5.49583 -3.89274,12.31664 -9.13443,11.84324 -14.20466,-1.28287 -18.70844,-18.68352 -14.55206,-30.11211 7.43478,-20.44308 32.87727,-26.01086 51.08979,-17.26087 26.72761,12.84095 33.49882,47.25242 19.96969,72.06747 -18.03221,33.07457 -61.69049,41.06397 -93.04516,22.6785 -39.45666,-23.13624 -48.66868,-76.15818 -25.38731,-114.02284 28.19686,-45.85917 90.6425,-56.29623 135.00052,-28.09612 52.27439,33.23285 63.9381,105.13717 30.80493,155.9782 -38.25355,58.69798 -119.63875,71.58954 -176.95588,33.51375 -65.12737,-43.26414 -79.24765,-134.14518 -36.22256,-197.93357 48.26766,-71.56092 148.65516,-86.91063 218.91125,-38.93137 77.99757,53.26608 94.57725,163.16781 41.64018,239.88893" />
    <path
       sodipodi:type="spiral"
       style="fill:#ffb380;fill-rule:evenodd;stroke:#000000;stroke-width:0.26458332"
       id="path34"
       sodipodi:cx="332.61905"
       sodipodi:cy="-409.05951"
       sodipodi:expansion="1"
       sodipodi:revolution="3"
       sodipodi:radius="282.16879"
       sodipodi:argument="-18.168539"
       sodipodi:t0="0"
       d="m 332.61905,-409.05951 c 10.99165,8.90703 -6.5836,19.21094 -14.80407,18.26885 -22.27695,-2.55301 -28.69803,-30.07174 -21.73363,-47.87698 12.45767,-31.8494 52.65595,-39.63892 80.9499,-25.19842 41.5225,21.192 50.86455,75.53225 28.66321,114.02281 -29.5909,51.30186 -98.51038,62.20914 -147.09574,32.128 -61.13971,-37.85405 -73.61478,-121.53657 -35.59278,-180.16865 46.04973,-71.01131 144.58974,-85.05568 213.24157,-39.05757 80.9038,54.20718 96.51871,167.65972 42.52235,246.31448 -62.34092,90.81004 -190.74092,107.9965 -279.3874,45.98715 -100.725766,-70.45897 -119.484616,-213.83001 -49.45193,-312.46032 78.56609,-110.64831 236.92485,-130.98024 345.53324,-52.91672 120.5759,86.6653 142.48147,260.02402 56.3815,378.60616" />
    <path
       sodipodi:type="spiral"
       style="fill:#ddff55;fill-rule:evenodd;stroke:#000000;stroke-width:0.26458332"
       id="path36"
       sodipodi:cx="548.06543"
       sodipodi:cy="-311.54166"
       sodipodi:expansion="1"
       sodipodi:revolution="3"
       sodipodi:radius="230.00464"
       sodipodi:argument="-17.551641"
       sodipodi:t0="0"
       d="m 548.06543,-311.54166 c 3.10798,11.10536 -13.43643,9.66849 -18.45784,5.16567 -13.60769,-12.20236 -4.90025,-33.52705 8.1265,-42.08134 23.3018,-15.30163 53.70221,-1.52487 65.70485,21.41866 17.61436,33.67056 -1.79892,74.20586 -34.71083,89.32837 -43.86639,20.15592 -94.83329,-5.09165 -112.95187,-48.00301 -22.80038,-53.99956 8.36643,-115.52147 61.29517,-136.57537 64.10379,-25.4991 136.24423,11.6305 160.19889,74.58733 28.22973,74.19245 -14.88779,156.98859 -87.87951,183.8224 -84.27183,30.98069 -177.74737,-18.14055 -207.4459,-101.17168 -33.74536,-94.34523 21.39016,-198.51626 114.46384,-231.06941 104.4146,-36.5197 219.29253,24.6375 254.69292,127.75601 39.30114,114.48109 -27.88315,240.07432 -141.04818,278.316429" />
    <path
       sodipodi:type="spiral"
       style="fill:#ff00ff;fill-rule:evenodd;stroke:#000000;stroke-width:0.26458332"
       id="path38"
       sodipodi:cx="513.29169"
       sodipodi:cy="13.517858"
       sodipodi:expansion="1"
       sodipodi:revolution="3"
       sodipodi:radius="214.41881"
       sodipodi:argument="-17.939184"
       sodipodi:t0="0"
       d="m 513.29169,13.517858 c 6.59499,8.490105 -8.19076,13.078633 -14.11112,10.961307 -16.0438,-5.737822 -16.04119,-27.2108999 -7.8115,-39.183534 14.72099,-21.416233 45.8133,-20.23572 64.25596,-4.661697 27.06533,22.855505 24.59049,64.681045 1.51189,89.328376 -30.76015,32.85102 -83.64468,29.015713 -114.4008,-1.637913 -38.70343,-38.57446 -33.4778,-102.654436 4.78772,-139.473219 46.34467,-44.592478 121.69025,-37.961318 164.54564,7.937525 50.50359,54.090199 42.45831,140.742324 -11.08733,189.618057 -61.82056,56.42898 -159.80525,46.96429 -214.69048,-14.23713 -62.36409,-69.540942 -51.47654,-178.875799 17.38694,-239.7629 77.25441,-68.30614 197.9519,-55.99335 264.83532,20.53674 74.25328,84.962911 60.51357,217.03218 -23.68655,289.90775" />
    <path
       sodipodi:type="spiral"
       style="fill:#000080;fill-rule:evenodd;stroke:#000000;stroke-width:0.26458332"
       id="path40"
       sodipodi:cx="-528.41071"
       sodipodi:cy="-99.875"
       sodipodi:expansion="1"
       sodipodi:revolution="3"
       sodipodi:radius="200.48706"
       sodipodi:argument="-17.752525"
       sodipodi:t0="0"
       d="m -528.41071,-99.875 c 4.58618,8.944929 -9.79492,10.595186 -14.86706,7.622526 -13.74516,-8.055726 -10.01678,-27.784386 -0.37799,-37.356646 17.24154,-17.12252 45.60381,-10.64277 59.84623,6.86654 20.90133,25.695625 11.36996,63.694826 -14.11107,82.335819 -33.96221,24.845512 -81.88617,12.145222 -104.8254,-21.355609 -28.86669,-42.15738 -12.94637,-100.12628 28.60014,-127.31499 50.31838,-32.92917 118.39406,-13.76267 149.80457,35.84468 37.01621,58.46054 14.58854,136.679108 -43.08921,172.294159 -66.59124,41.118985 -154.97569,15.420767 -194.78374,-50.333745 -45.23244,-74.714454 -16.25746,-173.280364 57.57827,-217.273334 82.83253,-49.35346 191.59094,-17.09736 239.76292,64.82281 53.48004,90.94692 17.93967,209.905934 -72.06734,262.252508" />
    <path
       sodipodi:type="star"
       style="fill:#00ffff;stroke-width:0.26458332"
       id="path42"
       sodipodi:sides="5"
       sodipodi:cx="-299.35715"
       sodipodi:cy="-232.16666"
       sodipodi:r1="38.382732"
       sodipodi:r2="19.191366"
       sodipodi:arg1="1.0101093"
       sodipodi:arg2="1.6384279"
       inkscape:flatsided="false"
       inkscape:rounded="0"
       inkscape:randomized="0"
       d="m -278.94643,-199.66071 -21.70767,-13.35845 -23.31079,10.30914 5.99662,-24.77321 -17.00801,-18.98418 25.41378,-1.95222 12.79926,-22.04201 9.70996,23.56667 24.91839,5.36146 -19.41269,16.51723 z"
       inkscape:transform-center-x="-0.80156439"
       inkscape:transform-center-y="-2.8945132" />
    <path
       sodipodi:type="star"
       style="fill:#00ffff;stroke-width:0.26458332"
       id="path44"
       sodipodi:sides="5"
       sodipodi:cx="-100.54167"
       sodipodi:cy="15.785714"
       sodipodi:r1="70.140808"
       sodipodi:r2="35.070408"
       sodipodi:arg1="1.0396187"
       sodipodi:arg2="1.6679372"
       inkscape:flatsided="false"
       inkscape:rounded="0"
       inkscape:randomized="0"
       d="m -65.011912,76.2619 -38.931178,-25.571116 -43.13555,17.573909 12.28918,-44.927657 -30.0434,-35.593715 46.52631,-2.195703 24.567709,-39.572035 16.465657,43.570638 45.227083,11.13685263 -36.349972,29.12383737 z"
       inkscape:transform-center-x="-2.1021918"
       inkscape:transform-center-y="-4.6669729" />
    <path
       sodipodi:type="star"
       style="fill:#00ffff;stroke-width:0.26458332"
       id="path46"
       sodipodi:sides="5"
       sodipodi:cx="350.76193"
       sodipodi:cy="-103.65476"
       sodipodi:r1="70.757301"
       sodipodi:r2="35.378651"
       sodipodi:arg1="0.92943197"
       sodipodi:arg2="1.5577505"
       inkscape:flatsided="false"
       inkscape:rounded="0"
       inkscape:randomized="0"
       d="m 393.09526,-46.958336 -41.8718,-21.320786 -41.30131,22.40591 7.33817,-46.410935 -34.0721,-32.356083 46.40705,-7.36275 20.2436,-42.40306 21.34296,41.8605 46.58333,6.14955 -33.21637,33.23396 z"
       inkscape:transform-center-x="0.28524611"
       inkscape:transform-center-y="-6.484864" />
    <path
       sodipodi:type="star"
       style="fill:#00ffff;stroke-width:0.26458332"
       id="path48"
       sodipodi:sides="5"
       sodipodi:cx="-13.607142"
       sodipodi:cy="-359.16666"
       sodipodi:r1="61.437107"
       sodipodi:r2="30.718555"
       sodipodi:arg1="1.2451547"
       sodipodi:arg2="1.8734732"
       inkscape:flatsided="false"
       inkscape:rounded="0"
       inkscape:randomized="0"
       d="m 6.0476177,-300.95834 -28.8112387,-28.88617 -40.129269,7.358 18.569217,-36.32743 -19.398497,-35.89146 40.287646,6.43458 28.1403387,-29.54013 6.3299173,40.30422 36.790183,17.63465 -36.375542,18.47479 z"
       inkscape:transform-center-x="-5.6590151"
       inkscape:transform-center-y="-0.2179849" />
    <path
       sodipodi:type="star"
       style="fill:#00ffff;stroke-width:0.26458332"
       id="path50"
       sodipodi:sides="5"
       sodipodi:cx="-370.41666"
       sodipodi:cy="-643.40479"
       sodipodi:r1="139.47681"
       sodipodi:r2="69.738396"
       sodipodi:arg1="0.86981247"
       sodipodi:arg2="1.498131"
       inkscape:flatsided="false"
       inkscape:rounded="0"
       inkscape:randomized="0"
       d="m -280.45832,-536.81549 -84.89523,-37.03494 -78.63689,48.93901 8.98824,-92.18459 -70.84389,-59.66514 90.45027,-19.93827 34.85295,-85.8141 46.9131,79.86206 92.38421,6.62911 -61.45639,69.29574 z"
       inkscape:transform-center-x="3.1291664"
       inkscape:transform-center-y="-10.307674" />
    <path
       sodipodi:type="star"
       style="fill:#00ffff;stroke-width:0.26458332"
       id="path52"
       sodipodi:sides="5"
       sodipodi:cx="71.059525"
       sodipodi:cy="-700.85718"
       sodipodi:r1="98.128326"
       sodipodi:r2="49.064163"
       sodipodi:arg1="0.91650981"
       sodipodi:arg2="1.5448283"
       inkscape:flatsided="false"
       inkscape:rounded="0"
       inkscape:randomized="0"
       d="m 130.77976,-622.99408 -58.446279,-28.81548 -56.871592,31.81072 9.34425,-64.49018 -47.828081,-44.25805 64.221346,-11.04165 27.312212,-59.1637 30.346725,57.66607 64.707959,7.69287 -45.46604,46.68125 z"
       inkscape:transform-center-x="0.7873479"
       inkscape:transform-center-y="-8.6184417" />
    <path
       sodipodi:type="star"
       style="fill:#00ffff;stroke-width:0.26458332"
       id="path54"
       sodipodi:sides="5"
       sodipodi:cx="525.3869"
       sodipodi:cy="-625.2619"
       sodipodi:r1="129.0112"
       sodipodi:r2="64.5056"
       sodipodi:arg1="1.1989948"
       sodipodi:arg2="1.8273134"
       inkscape:flatsided="false"
       inkscape:rounded="0"
       inkscape:randomized="0"
       d="m 572.25596,-505.06547 -63.23498,-57.80149 -83.46434,19.32292 35.4318,-78.00168 -44.16909,-73.4082 85.13303,9.5938 56.16635,-64.69167 17.18331,83.93096 78.88179,33.42655 -74.51316,42.27839 z"
       inkscape:transform-center-x="-10.114686"
       inkscape:transform-center-y="-2.296722" />
    <path
       sodipodi:type="star"
       style="fill:#00ffff;stroke-width:0.26458332"
       id="path56"
       sodipodi:sides="5"
       sodipodi:cx="483.80951"
       sodipodi:cy="131.44643"
       sodipodi:r1="107.78354"
       sodipodi:r2="53.891769"
       sodipodi:arg1="1.0003017"
       sodipodi:arg2="1.6286202"
       inkscape:flatsided="false"
       inkscape:rounded="0"
       inkscape:randomized="0"
       d="m 542.01784,222.16071 -61.32283,-36.91259 -65.17255,29.58997 16.15616,-69.72808 -48.28116,-52.838986 71.30788,-6.18174 35.33316,-62.246254 27.91453,65.907562 70.11826,14.368678 -54.05576,46.91486 z"
       inkscape:transform-center-x="-1.9248572"
       inkscape:transform-center-y="-8.444558" />
    <path
       sodipodi:type="star"
       style="fill:#00ffff;stroke-width:0.26458332"
       id="path58"
       sodipodi:sides="5"
       sodipodi:cx="-463.3988"
       sodipodi:cy="166.22023"
       sodipodi:r1="173.66515"
       sodipodi:r2="86.832573"
       sodipodi:arg1="0.8593372"
       sodipodi:arg2="1.4876557"
       inkscape:flatsided="false"
       inkscape:rounded="0"
       inkscape:randomized="0"
       d="m -350.00595,297.75594 -106.18185,-45.00307 -97.26858,61.95714 9.98847,-114.89166 -88.98239,-73.3621 112.35507,-26.00387 42.27443,-107.2974235 59.45078,98.8203805 115.10943,7.04865 -75.61246,87.078233 z"
       inkscape:transform-center-x="4.4566358"
       inkscape:transform-center-y="-12.287747" />
    <path
       sodipodi:type="star"
       style="fill:#00ffff;stroke-width:0.26458332"
       id="path60"
       sodipodi:sides="5"
       sodipodi:cx="-653.14282"
       sodipodi:cy="-433.25"
       sodipodi:r1="109.87346"
       sodipodi:r2="54.936726"
       sodipodi:arg1="0.99615171"
       sodipodi:arg2="1.6244702"
       inkscape:flatsided="false"
       inkscape:rounded="0"
       inkscape:randomized="0"
       d="m -593.42258,-341.02381 -62.66749,-37.36858 -66.3105,30.43917 16.17431,-71.14785 -49.44044,-53.65881 72.66376,-6.60321 35.75463,-63.60214 28.73436,67.06684 71.53802,14.35053 -54.90495,48.0528 z"
       inkscape:transform-center-x="-1.8215111"
       inkscape:transform-center-y="-8.7445145" />
    <path
       sodipodi:type="star"
       style="fill:#ff2a2a;stroke-width:0.26458332"
       id="path62"
       sodipodi:sides="5"
       sodipodi:cx="-702.27972"
       sodipodi:cy="-149.0119"
       sodipodi:r1="63.616886"
       sodipodi:r2="31.808441"
       sodipodi:arg1="1.2189796"
       sodipodi:arg2="1.8472982"
       inkscape:flatsided="false"
       inkscape:rounded="0"
       inkscape:randomized="0"
       d="m -680.3571,-89.291664 -30.60608,-29.119996 -41.3394,8.70398 18.23697,-38.10668 -21.05256,-36.62644 41.87714,5.56878 28.32821,-31.34036 7.64453,41.54837 38.56035,17.25702 -37.15256,20.10954 z"
       inkscape:transform-center-x="-5.3666772"
       inkscape:transform-center-y="-0.74011891" />
    <path
       sodipodi:type="star"
       style="fill:#ff2a2a;stroke-width:0.26458332"
       id="path64"
       sodipodi:sides="5"
       sodipodi:cx="-665.99402"
       sodipodi:cy="236.5238"
       sodipodi:r1="137.03214"
       sodipodi:r2="68.516075"
       sodipodi:arg1="0.60719773"
       sodipodi:arg2="1.2355163"
       inkscape:flatsided="false"
       inkscape:rounded="0"
       inkscape:randomized="0"
       d="m -553.45636,314.71 -89.99357,-13.48522 -62.12753,66.48956 -14.98434,-89.75613 -82.43379,-38.54039 80.73274,-41.98712 11.18065,-90.30883 64.87991,63.80666 89.34381,-17.27354 -40.63474,81.42181 z"
       inkscape:transform-center-x="12.231949"
       inkscape:transform-center-y="0.89429634" />
    <path
       sodipodi:type="star"
       style="fill:#ff2a2a;stroke-width:0.26458332"
       id="path66"
       sodipodi:sides="5"
       sodipodi:cx="-6.8035717"
       sodipodi:cy="-210.24403"
       sodipodi:r1="64.721176"
       sodipodi:r2="32.360588"
       sodipodi:arg1="1.3229848"
       sodipodi:arg2="1.9513033"
       inkscape:flatsided="false"
       inkscape:rounded="0"
       inkscape:randomized="0"
       d="m 9.071428,-147.49999 -27.893438,-32.698 -42.749049,4.44095 22.478099,-36.63247 -17.43378,-39.28443 41.785667,10.05788 31.97438,-28.72006 3.346864,42.84859 37.195034,21.53445 -39.717192,16.424 z"
       inkscape:transform-center-x="-4.9056448"
       inkscape:transform-center-y="1.3259806" />
    <path
       sodipodi:type="star"
       style="fill:#ff2a2a;stroke-width:0.26458332"
       id="path68"
       sodipodi:sides="5"
       sodipodi:cx="-173.11308"
       sodipodi:cy="-792.32739"
       sodipodi:r1="55.189701"
       sodipodi:r2="27.594851"
       sodipodi:arg1="1.3357841"
       sodipodi:arg2="1.9641026"
       inkscape:flatsided="false"
       inkscape:rounded="0"
       inkscape:randomized="0"
       d="m -160.26189,-738.65477 -23.42676,-28.18472 -36.49889,3.32006 19.56599,-30.98973 -14.43634,-33.68655 35.51921,9.03201 27.57674,-24.13949 2.38609,36.57182 31.4797,18.76752 -34.04453,13.57062 z"
       inkscape:transform-center-x="-3.9712384"
       inkscape:transform-center-y="1.3484189" />
    <path
       sodipodi:type="star"
       style="fill:#ff2a2a;stroke-width:0.26458332"
       id="path70"
       sodipodi:sides="5"
       sodipodi:cx="-698.5"
       sodipodi:cy="-775.69641"
       sodipodi:r1="120.66856"
       sodipodi:r2="60.334286"
       sodipodi:arg1="0.66104317"
       sodipodi:arg2="1.2893617"
       inkscape:flatsided="false"
       inkscape:rounded="0"
       inkscape:randomized="0"
       d="m -603.25001,-701.61308 -78.4931,-16.12272 -57.78046,55.52052 -8.92209,-79.63357 -70.65829,-37.79569 72.97895,-33.09354 14.11122,-78.87954 54.02557,59.18064 79.37951,-10.95455 -39.58932,69.66918 z"
       inkscape:transform-center-x="10.356318"
       inkscape:transform-center-y="-1.2200296" />
    <path
       sodipodi:type="star"
       style="fill:#ff2a2a;stroke-width:0.26458332"
       id="path72"
       sodipodi:sides="5"
       sodipodi:cx="343.95834"
       sodipodi:cy="-711.44049"
       sodipodi:r1="71.047455"
       sodipodi:r2="35.523731"
       sodipodi:arg1="1.2120257"
       sodipodi:arg2="1.8403442"
       inkscape:flatsided="false"
       inkscape:rounded="0"
       inkscape:randomized="0"
       d="m 368.90477,-644.91668 -34.40624,-32.28279 -46.09922,10.04142 20.07065,-42.6982 -23.79541,-40.73999 46.81058,5.89384 31.39284,-35.22012 8.85989,46.3408 43.19725,18.97276 -41.33487,22.74635 z"
       inkscape:transform-center-x="-5.8464826"
       inkscape:transform-center-y="-0.97910389" />
    <path
       sodipodi:type="star"
       style="fill:#ff2a2a;stroke-width:0.26458332"
       id="path74"
       sodipodi:sides="5"
       sodipodi:cx="77.10714"
       sodipodi:cy="-514.1369"
       sodipodi:r1="75.371902"
       sodipodi:r2="37.685951"
       sodipodi:arg1="0.77830608"
       sodipodi:arg2="1.4066246"
       inkscape:flatsided="false"
       inkscape:rounded="0"
       inkscape:randomized="0"
       d="m 130.77976,-461.22024 -47.513408,-15.73743 -39.900202,30.21861 0.284744,-50.05107 -41.0694519,-28.60928 47.6893879,-15.19582 14.517885,-47.90013 29.188919,40.65954 50.041996,-0.99463 -29.64964,40.3248 z"
       inkscape:transform-center-x="3.8066035"
       inkscape:transform-center-y="-3.4803001" />
    <path
       sodipodi:type="star"
       style="fill:#ff2a2a;stroke-width:0.26458332"
       id="path76"
       sodipodi:sides="5"
       sodipodi:cx="-209.3988"
       sodipodi:cy="-431.73807"
       sodipodi:r1="81.098579"
       sodipodi:r2="40.54929"
       sodipodi:arg1="1.3642603"
       sodipodi:arg2="1.9925788"
       inkscape:flatsided="false"
       inkscape:rounded="0"
       inkscape:randomized="0"
       d="m -192.76785,-352.36306 -33.23132,-42.37943 -53.7505,3.34962 30.03619,-44.70082 -19.7955,-50.08468 51.7947,14.7528 41.51621,-34.30365 1.9747,53.81855 45.45393,28.88385 -50.57427,18.5089 z"
       inkscape:transform-center-x="-5.1392495"
       inkscape:transform-center-y="2.6919292" />
    <path
       sodipodi:type="star"
       style="fill:#ff2a2a;stroke-width:0.26458332"
       id="path78"
       sodipodi:sides="5"
       sodipodi:cx="-212.42261"
       sodipodi:cy="-147.49998"
       sodipodi:r1="96.879944"
       sodipodi:r2="48.439972"
       sodipodi:arg1="1.1700029"
       sodipodi:arg2="1.7983214"
       inkscape:flatsided="false"
       inkscape:rounded="0"
       inkscape:randomized="0"
       d="m -174.62499,-58.297609 -48.72408,-42.010821 -62.22993,16.321163 24.89809,-59.321403 -34.75245,-54.14067 64.11194,5.34817 40.75174,-49.78193 14.72527,62.62676 59.93841,23.37374 -55.01123,33.35729 z"
       inkscape:transform-center-x="-6.7529287"
       inkscape:transform-center-y="-2.5903702" />
    <path
       sodipodi:type="star"
       style="fill:#ff2a2a;stroke-width:0.26458332"
       id="path80"
       sodipodi:sides="5"
       sodipodi:cx="603.25"
       sodipodi:cy="-792.32739"
       sodipodi:r1="106.22678"
       sodipodi:r2="53.113388"
       sodipodi:arg1="1.2895641"
       sodipodi:arg2="1.9178827"
       inkscape:flatsided="false"
       inkscape:rounded="0"
       inkscape:randomized="0"
       d="m 632.73215,-690.27382 -47.54917,-52.10745 -69.88121,9.62936 34.86363,-61.32404 -30.75255,-63.48535 69.09608,14.20712 50.8751,-48.86546 7.84009,70.10451 62.19508,33.28484 -64.25063,29.11985 z"
       inkscape:transform-center-x="-9.1104755"
       inkscape:transform-center-y="1.0806745" />
    <path
       sodipodi:type="star"
       style="fill:#ff2a2a;stroke-width:0.26458332"
       id="path82"
       sodipodi:sides="5"
       sodipodi:cx="636.5119"
       sodipodi:cy="-516.40472"
       sodipodi:r1="129.62985"
       sodipodi:r2="64.814926"
       sodipodi:arg1="1.3173313"
       sodipodi:arg2="1.9456498"
       inkscape:flatsided="false"
       inkscape:rounded="0"
       inkscape:randomized="0"
       d="m 669.01785,-390.91663 -56.23704,-65.17383 -85.57029,9.37869 44.6058,-73.62443 -35.36234,-78.484 83.80494,19.67143 63.71516,-57.88447 7.18851,85.78204 74.74047,42.70943 -79.3622,33.34478 z"
       inkscape:transform-center-x="-10.044884"
       inkscape:transform-center-y="2.4297936" />
    <path
       sodipodi:type="star"
       style="fill:#ff2a2a;stroke-width:0.26458332"
       id="path84"
       sodipodi:sides="5"
       sodipodi:cx="298.60117"
       sodipodi:cy="-365.21429"
       sodipodi:r1="43.518177"
       sodipodi:r2="21.759089"
       sodipodi:arg1="1.2710203"
       sodipodi:arg2="1.8993388"
       inkscape:flatsided="false"
       inkscape:rounded="0"
       inkscape:randomized="0"
       d="m 311.45235,-323.63691 -19.87205,-20.98211 -28.55034,4.47505 13.81437,-25.38328 -13.07857,-25.77011 28.40981,5.29437 20.46734,-20.40185 3.74386,28.65538 25.72807,13.16108 -26.09597,12.41562 z"
       inkscape:transform-center-x="-3.9712324"
       inkscape:transform-center-y="0.19342107" />
    <path
       sodipodi:type="star"
       style="fill:#ff2a2a;stroke-width:0.26458332"
       id="path86"
       sodipodi:sides="5"
       sodipodi:cx="704.54761"
       sodipodi:cy="-92.315483"
       sodipodi:r1="101.47799"
       sodipodi:r2="50.738995"
       sodipodi:arg1="1.1404697"
       sodipodi:arg2="1.7687882"
       inkscape:flatsided="false"
       inkscape:rounded="0"
       inkscape:randomized="0"
       d="M 746.88094,-0.08928885 694.5672,-42.567748 l -64.6502,19.013122 24.23359,-62.879888 -38.06057,-55.610616 67.29092,3.61655 41.12748,-53.38237 17.35449,65.11504 63.47874,22.61849 -56.56525,36.626759 z"
       inkscape:transform-center-x="-6.1682201"
       inkscape:transform-center-y="-3.6346358" />
    <path
       sodipodi:type="star"
       style="fill:#ff2a2a;stroke-width:0.26458332"
       id="path88"
       sodipodi:sides="5"
       sodipodi:cx="179.91666"
       sodipodi:cy="52.07143"
       sodipodi:r1="63.14352"
       sodipodi:r2="31.57176"
       sodipodi:arg1="1.0160041"
       sodipodi:arg2="1.6443226"
       inkscape:flatsided="false"
       inkscape:rounded="0"
       inkscape:randomized="0"
       d="m 213.17856,105.74405 -35.58117,-22.186161 -38.44793,16.733241 10.1051,-40.695599 -27.79532,-31.395304 41.82646,-2.965105 21.26948,-36.136608 15.74508,38.863065 40.94058,9.061652 -32.09547,26.9838 z"
       inkscape:transform-center-x="-1.4333816"
       inkscape:transform-center-y="-4.6501501" />
    <path
       sodipodi:type="star"
       style="fill:#ff2a2a;stroke-width:0.26458332"
       id="path90"
       sodipodi:sides="5"
       sodipodi:cx="603.25"
       sodipodi:cy="228.20834"
       sodipodi:r1="138.69408"
       sodipodi:r2="69.347038"
       sodipodi:arg1="1.1852293"
       sodipodi:arg2="1.8135478"
       inkscape:flatsided="false"
       inkscape:rounded="0"
       inkscape:randomized="0"
       d="m 655.41071,356.72024 -68.82996,-61.19809 -89.43428,22.00633 36.93322,-84.37242 -48.56599,-78.25673 91.65595,9.05307 59.41885,-70.371659 19.71326,89.967529 85.28886,34.76465 -79.47247,46.54993 z"
       inkscape:transform-center-x="-10.302155"
       inkscape:transform-center-y="-3.0578572" />
    <path
       sodipodi:type="star"
       style="fill:#ff2a2a;stroke-width:0.26458332"
       id="path92"
       sodipodi:sides="5"
       sodipodi:cx="235.85715"
       sodipodi:cy="245.59523"
       sodipodi:r1="115.23253"
       sodipodi:r2="57.616264"
       sodipodi:arg1="1.2365983"
       sodipodi:arg2="1.8649168"
       inkscape:flatsided="false"
       inkscape:rounded="0"
       inkscape:randomized="0"
       d="m 273.65476,354.45237 -54.50046,-53.71506 -75.14634,14.44429 34.24449,-68.43189 -36.95883,-67.00487 75.66472,11.42182 52.30451,-55.85558 12.51889,75.49096 69.2848,32.48423 -67.92763,35.23415 z"
       inkscape:transform-center-x="-10.322928"
       inkscape:transform-center-y="-0.71351245" />
    <path
       sodipodi:type="star"
       style="fill:#ff2a2a;stroke-width:0.26458332"
       id="path94"
       sodipodi:sides="5"
       sodipodi:cx="-344.71426"
       sodipodi:cy="227.45238"
       sodipodi:r1="47.720901"
       sodipodi:r2="23.860449"
       sodipodi:arg1="1.6342033"
       sodipodi:arg2="2.2625218"
       inkscape:flatsided="false"
       inkscape:rounded="0"
       inkscape:randomized="0"
       d="m -347.73807,275.07738 -12.19599,-29.24896 -31.00868,-6.53492 24.04865,-20.6375 -3.36713,-31.51041 27.05886,16.49429 28.92769,-12.93959 -7.32536,30.83153 21.24543,23.51331 -31.58618,2.56064 z"
       inkscape:transform-center-x="0.93440418"
       inkscape:transform-center-y="3.6591046" />
    <path
       sodipodi:type="star"
       style="fill:#ff2a2a;stroke-width:0.26458332"
       id="path96"
       sodipodi:sides="5"
       sodipodi:cx="-654.65472"
       sodipodi:cy="42.244045"
       sodipodi:r1="36.482048"
       sodipodi:r2="18.241022"
       sodipodi:arg1="0.97704666"
       sodipodi:arg2="1.6053652"
       inkscape:flatsided="false"
       inkscape:rounded="0"
       inkscape:randomized="0"
       d="m -634.24401,72.482142 -21.04116,-12.007973 -21.82044,10.525706 4.91819,-23.722001 -16.75343,-17.499846 24.08077,-2.65303 11.46625,-21.3412048 9.96455,22.0823388 23.83995,4.310255 -17.92233,16.300666 z"
       inkscape:transform-center-x="-0.38964521"
       inkscape:transform-center-y="-3.1110778" />
  </g>
</svg>
